<?xml version="1.0" encoding="iso-8859-1"?>
<!-- Generator: Adobe Illustrator 18.0.0, SVG Export Plug-In . SVG Version: 6.00 Build 0)  -->
<!DOCTYPE svg PUBLIC "-//W3C//DTD SVG 1.1//EN" "http://www.w3.org/Graphics/SVG/1.1/DTD/svg11.dtd">
<svg version="1.1" id="Capa_1" xmlns="http://www.w3.org/2000/svg" xmlns:xlink="http://www.w3.org/1999/xlink" x="0px" y="0px"
	 viewBox="0 0 482.348 482.348" style="enable-background:new 0 0 482.348 482.348;" xml:space="preserve">
<g>
	<path d="M114.866,362.652c-25.045,0-41.25,55.919-41.25,75.269c0,22.745,18.505,41.25,41.25,41.25s41.25-18.505,41.25-41.25
		C156.116,418.571,139.912,362.652,114.866,362.652z M114.866,470.672c-18.059,0-32.75-14.691-32.75-32.75
		c0-20.439,16.783-66.769,32.75-66.769s32.75,46.33,32.75,66.769C147.616,455.98,132.925,470.672,114.866,470.672z"/>
	<path d="M108.334,455.017c-6.877-4.658-10.981-12.389-10.981-20.679c0-6.84,2.814-20.152,8.193-32.363
		c0.946-2.148-0.028-4.656-2.176-5.603c-2.148-0.945-4.656,0.028-5.603,2.177c-5.249,11.915-8.915,26.632-8.915,35.789
		c0,11.113,5.5,21.475,14.714,27.716c0.73,0.495,1.56,0.731,2.38,0.731c1.362,0,2.701-0.653,3.522-1.866
		C110.785,458.976,110.277,456.333,108.334,455.017z"/>
	<path d="M462.467,18.293h-69.711c-7.571-9.223-19.055-15.117-31.89-15.117c-12.835,0-24.319,5.894-31.89,15.117h-69.71
		c-10.962,0-19.881,8.919-19.881,19.881v12.504c0,10.962,8.919,19.881,19.881,19.881h69.71c7.571,9.223,19.055,15.117,31.89,15.117
		c12.835,0,24.319-5.895,31.89-15.117h69.711c10.962,0,19.881-8.919,19.881-19.881V38.174
		C482.348,27.212,473.429,18.293,462.467,18.293z M259.266,62.059c-6.275,0-11.381-5.105-11.381-11.381V38.174
		c0-6.275,5.105-11.381,11.381-11.381h64.318c-2.541,5.35-3.968,11.327-3.968,17.633c0,6.306,1.427,12.283,3.968,17.633H259.266z
		 M360.866,77.176c-18.059,0-32.75-14.691-32.75-32.75c0-18.059,14.691-32.75,32.75-32.75c18.059,0,32.75,14.691,32.75,32.75
		C393.616,62.484,378.925,77.176,360.866,77.176z M473.848,50.678c0,6.275-5.105,11.381-11.381,11.381h-64.318
		c2.54-5.35,3.968-11.327,3.968-17.633c0-6.306-1.427-12.283-3.968-17.633h64.318c6.275,0,11.381,5.105,11.381,11.381V50.678z"/>
	<path d="M476.182,109.672H406.5v-15.75c0-2.348-1.903-4.25-4.25-4.25h-84c-2.347,0-4.25,1.902-4.25,4.25v15.75l-199.977,0.001
		c-1.018,0.021-25.224,0.665-49.777,13.215C41.324,134.604,14,159.215,14,209.922v91.371H9.25c-5.101,0-9.25,4.15-9.25,9.25v36
		c0,5.101,4.149,9.25,9.25,9.25h196.159c5.101,0,9.25-4.149,9.25-9.25v-36c0-5.1-4.149-9.25-9.25-9.25h-6.636v-0.277
		c0-11.441,9.309-20.75,20.75-20.75H314v15.07c0,2.348,1.903,4.25,4.25,4.25h84c2.347,0,4.25-1.902,4.25-4.25v-15.07h69.682
		c2.347,0,4.25-1.902,4.25-4.25V113.922C480.432,111.574,478.529,109.672,476.182,109.672z M322.5,98.172H398v152.576h-75.5v-17
		h38.388c2.347,0,4.25-1.902,4.25-4.25c0-2.348-1.903-4.25-4.25-4.25H322.5V98.172z M206.159,310.543v36
		c0,0.413-0.337,0.75-0.75,0.75H9.25c-0.414,0-0.75-0.337-0.75-0.75v-12.371h98.742c2.347,0,4.25-1.902,4.25-4.25
		c0-2.348-1.903-4.25-4.25-4.25H8.5v-15.129c0-0.413,0.336-0.75,0.75-0.75h196.159C205.823,309.793,206.159,310.13,206.159,310.543z
		 M219.523,271.766c-16.128,0-29.25,13.121-29.25,29.25v0.277H61.5v-35.389c0-2.348-1.903-4.25-4.25-4.25
		c-2.347,0-4.25,1.902-4.25,4.25v35.389H22.5v-91.371c0-37.149,15.262-63.842,45.363-79.336
		c22.83-11.752,46.109-12.41,46.249-12.414H314v25.541H110.938c-2.347,0-4.25,1.902-4.25,4.25c0,2.348,1.903,4.25,4.25,4.25H314
		v119.553H219.523z M398,291.086h-75.5v-31.838H398V291.086z M471.932,271.766H406.5V152.117c0.286,0.061,0.582,0.096,0.886,0.096
		h43.497c2.347,0,4.25-1.902,4.25-4.25c0-2.348-1.903-4.25-4.25-4.25h-43.497c-0.304,0-0.6,0.035-0.886,0.096v-25.637h65.432
		V271.766z"/>
</g>
<g>
</g>
<g>
</g>
<g>
</g>
<g>
</g>
<g>
</g>
<g>
</g>
<g>
</g>
<g>
</g>
<g>
</g>
<g>
</g>
<g>
</g>
<g>
</g>
<g>
</g>
<g>
</g>
<g>
</g>
</svg>
