<?xml version="1.0" ?><svg height="513px" version="1.1" viewBox="0 0 463 513" width="463px" xmlns="http://www.w3.org/2000/svg" xmlns:sketch="http://www.bohemiancoding.com/sketch/ns" xmlns:xlink="http://www.w3.org/1999/xlink"><title/><desc/><defs/><g fill="none" fill-rule="evenodd" id="Page-1" stroke="none" stroke-width="1"><path d="M234.631353,142.940215 C283.014893,142.940215 272.192544,115.388121 348.587193,119.684426 C424.981843,123.98073 448.536557,169.412363 448.536557,169.412363 C448.536557,169.412363 384.874272,207.062595 389.967494,279.195653 C395.060256,351.328211 462.540729,369.554412 462.540729,374.910182 C462.540729,380.265452 393.150701,511.965838 339.037574,511.965838 C284.924909,511.965838 289.002528,492.317526 238.451385,491.448375 C186.18791,490.549253 187.521465,515.707185 147.414355,511.965838 C107.307245,508.223493 11.1770839,425.346428 0.991127591,308.911134 C-9.19483798,192.474841 60.8337214,119.289312 132.771974,119.684426 C204.710227,120.080039 186.248275,142.940215 234.631353,142.940215 L234.631353,142.940215 L234.631353,142.940215 Z M232.14375,107.201616 C232.14375,107.201616 227.661549,66.799571 257.915833,33.3996382 C288.170579,0 329.070265,0 329.070265,0 C329.070265,0 338.034669,38.2480534 308.900589,72.7252842 C279.766509,107.201616 232.14375,107.201616 232.14375,107.201616 Z" fill="#4A4A4A" id="apple"/></g></svg>